# xmcd
# Track frame offsets:
# 150
# 16926
# 29674
# 43852
# 57087
# 67937
# 79115
# 90037
# 100981
# 111402
# 121437
# 130685
# 141529
#
# Disc length: 2103 seconds
# Revision: 0
# Processed by: cddbd v1.5.2PL0 Copyright (c) Steve Scherf et al.
# Submitted via: VisiTrax 2.11.1.266 - For more info visit www.synapsa.com
#
DISCID=ad08350d
DTITLE=Fargo, Donna - U.S. Of A
DYEAR=1978
DGENRE=
TTITLE0=U.S. of A.
TTITLE1=It do feel good
TTITLE2=I´ll try a little bit harder
TTITLE3=Puffy eyes
TTITLE4=Nothing can stay
TTITLE5=All about a feeling
TTITLE6=Little girl, gone
TTITLE7=Just call me
TTITLE8=Hot diggety dog
TTITLE9=Does it matter
TTITLE10=Rotten little song
TTITLE11=Just a friend of mine
TTITLE12=Heartbreak hotel
EXTD=
EXTT0=
EXTT1=
EXTT2=
EXTT3=
EXTT4=
EXTT5=
EXTT6=
EXTT7=
EXTT8=
EXTT9=
EXTT10=
EXTT11=
EXTT12=
PLAYORDER=
